# File created by Blade
# Date/Time:  Tue Jan 27 20:07:51 2015
# Frame Rate: 120.000 fps
#------------------------------------------------------
:FULLY-SPECIFIED
:DEGREES
3461
root 4.869407 34.065631 -5.662979 31.708023 -29.601000 -30.284363
Spine -0.212145 25.773826 0.627301
Head -9.852923 0.966607 13.329934
LeftShoulder -14.744179 -1.351497 31.221286
LeftArm -14.108290 -41.202013 -69.681706
LeftForeArm -55.066689 -0.000000 127.402589
LeftHand 10.769439 -0.000000 -43.405624
LeftHandThumb1 -26.253704 0.000000 33.147579
RightShoulder -11.085344 -4.575615 -20.615429
RightArm 25.284688 -36.958527 88.979546
RightForeArm -18.183823 0.000000 16.690886
RightHand 17.234205 0.000000 2.962951
RightHandThumb1 -24.326973 -0.000000 -32.862282
LeftUpLeg -8.443525 20.707367 14.380793
LeftLeg -6.645142 -0.000000 0.000000
LeftFoot -15.852731 15.925390 -18.223811
LeftToeBase 21.349839 -0.000000 -0.000000
RightUpLeg 25.458112 -38.580014 -28.669151
RightLeg 1.134640 -0.000000 -0.000000
RightFoot 33.108299 -26.302231 19.080160
RightToeBase 16.513329 -0.000000 -0.000000
3462
root 4.868081 34.066471 -5.676469 31.703693 -29.514441 -30.224662
Spine -0.223842 25.718749 0.577408
Head -9.879512 0.988973 13.348030
LeftShoulder -14.759532 -1.290771 31.237903
LeftArm -13.895304 -41.135715 -69.845022
LeftForeArm -55.061102 0.000000 127.470424
LeftHand 10.753915 -0.000000 -43.266090
LeftHandThumb1 -26.253704 0.000000 33.147579
RightShoulder -11.115808 -4.590300 -20.590573
RightArm 25.314504 -36.938021 88.959570
RightForeArm -18.242410 0.000000 16.713473
RightHand 17.214674 -0.000000 2.879610
RightHandThumb1 -24.326973 -0.000000 -32.862282
LeftUpLeg -8.542702 20.666965 14.360401
LeftLeg -6.628192 -0.000000 0.000000
LeftFoot -15.815665 15.864611 -18.245835
LeftToeBase 21.335143 -0.000000 -0.000000
RightUpLeg 25.409225 -38.536438 -28.529091
RightLeg 1.233011 -0.000000 -0.000000
RightFoot 33.069381 -26.361251 19.161561
RightToeBase 16.593063 -0.000000 -0.000000
3463
root 4.865923 34.066824 -5.689821 31.720289 -29.443158 -30.175635
Spine -0.259364 25.656576 0.532084
Head -9.886393 0.993988 13.342223
LeftShoulder -14.775130 -1.301868 31.255601
LeftArm -13.816642 -41.075058 -69.901498
LeftForeArm -55.060871 -0.000000 127.518155
LeftHand 10.751044 -0.000000 -43.256902
LeftHandThumb1 -26.253704 0.000000 33.147579
RightShoulder -11.128185 -4.602359 -20.565444
RightArm 25.353855 -36.900717 88.938756
RightForeArm -18.231408 -0.000000 16.710472
RightHand 17.272686 -0.000000 2.914256
RightHandThumb1 -24.326973 -0.000000 -32.862282
LeftUpLeg -8.648454 20.667784 14.332182
LeftLeg -6.615846 -0.000000 0.000000
LeftFoot -15.778089 15.800016 -18.236027
LeftToeBase 21.378897 -0.000000 -0.000000
RightUpLeg 25.337873 -38.529297 -28.377240
RightLeg 1.337001 -0.000000 -0.000000
RightFoot 33.044843 -26.374168 19.192795
RightToeBase 16.518843 -0.000000 -0.000000
3464
root 4.863758 34.065926 -5.701688 31.716572 -29.363151 -30.097450
Spine -0.288630 25.580212 0.490512
Head -9.874528 0.976582 13.294779
LeftShoulder -14.744107 -1.370116 31.253640
LeftArm -13.852899 -41.046604 -69.841534
LeftForeArm -55.130223 -0.000000 127.548373
LeftHand 10.727738 0.000000 -43.245073
LeftHandThumb1 -26.253704 0.000000 33.147579
RightShoulder -11.128030 -4.568170 -20.592901
RightArm 25.299662 -36.852949 89.021843
RightForeArm -18.292386 -0.000000 16.693709
RightHand 17.296717 0.000000 2.851959
RightHandThumb1 -24.326973 -0.000000 -32.862282
LeftUpLeg -8.759875 20.640127 14.285070
LeftLeg -6.592438 -0.000000 0.000000
LeftFoot -15.745878 15.745649 -18.220139
LeftToeBase 21.452009 -0.000000 -0.000000
RightUpLeg 25.334144 -38.596072 -28.294911
RightLeg 1.397465 -0.000000 -0.000000
RightFoot 32.985215 -26.358281 19.295475
RightToeBase 16.874227 -0.000000 -0.000000
3465
root 4.861141 34.065517 -5.711985 31.706627 -29.304211 -30.034395
Spine -0.305985 25.522995 0.436578
Head -9.863985 0.960820 13.296738
LeftShoulder -14.755340 -1.369372 31.271442
LeftArm -13.771467 -41.014991 -69.895381
LeftForeArm -55.140700 -0.000000 127.570984
LeftHand 10.692366 -0.000000 -43.236776
LeftHandThumb1 -26.253704 0.000000 33.147579
RightShoulder -11.123388 -4.595690 -20.575327
RightArm 25.335905 -36.806007 89.020337
RightForeArm -18.314857 -0.000000 16.691819
RightHand 17.281772 -0.000000 2.826305
RightHandThumb1 -24.326973 -0.000000 -32.862282
LeftUpLeg -8.841143 20.657525 14.235611
LeftLeg -6.586972 -0.000000 0.000000
LeftFoot -15.689641 15.701048 -18.190658
LeftToeBase 21.410524 -0.000000 -0.000000
RightUpLeg 25.330570 -38.639909 -28.193517
RightLeg 1.437751 -0.000000 -0.000000
RightFoot 32.989601 -26.350932 19.372781
RightToeBase 16.705708 -0.000000 -0.000000
3466
root 4.857600 34.065233 -5.723451 31.695744 -29.237799 -29.972224
Spine -0.324773 25.480379 0.388378
Head -9.855443 0.904133 13.323083
LeftShoulder -14.736565 -1.368894 31.291502
LeftArm -13.697512 -41.011029 -69.949062
LeftForeArm -55.101136 0.000000 127.601120
LeftHand 10.699175 -0.000000 -43.069228
LeftHandThumb1 -26.253704 0.000000 33.147579
RightShoulder -11.137097 -4.442752 -20.599941
RightArm 25.172082 -36.820572 89.126464
RightForeArm -18.281438 -0.000000 16.659743
RightHand 17.295935 -0.000000 2.779036
RightHandThumb1 -24.326973 -0.000000 -32.862282
LeftUpLeg -8.924129 20.652884 14.196265
LeftLeg -6.576866 -0.000000 0.000000
LeftFoot -15.637457 15.659480 -18.144011
LeftToeBase 21.411899 -0.000000 -0.000000
RightUpLeg 25.326368 -38.692128 -28.079152
RightLeg 1.492799 -0.000000 -0.000000
RightFoot 32.977262 -26.292324 19.415180
RightToeBase 16.501940 -0.000000 -0.000000
3467
root 4.853793 34.063862 -5.733789 31.680031 -29.196983 -29.907835
Spine -0.334168 25.462753 0.354455
Head -9.829560 0.844469 13.279227
LeftShoulder -14.679150 -1.446906 31.307194
LeftArm -13.772546 -41.011499 -69.869304
LeftForeArm -55.112761 -0.000000 127.590627
LeftHand 10.707816 -0.000000 -43.088674
LeftHandThumb1 -26.253704 0.000000 33.147579
RightShoulder -11.125403 -4.535835 -20.613935
RightArm 25.259659 -36.758846 89.131427
RightForeArm -18.327047 -0.000000 16.649020
RightHand 17.252851 -0.000000 2.750900
RightHandThumb1 -24.326973 -0.000000 -32.862282
LeftUpLeg -8.990939 20.651185 14.146735
LeftLeg -6.568775 -0.000000 0.000000
LeftFoot -15.597165 15.653825 -18.097970
LeftToeBase 21.381942 -0.000000 -0.000000
RightUpLeg 25.308011 -38.703928 -27.956621
RightLeg 1.537385 -0.000000 -0.000000
RightFoot 32.933588 -26.334073 19.459443
RightToeBase 16.556522 -0.000000 -0.000000
3468
root 4.851238 34.062448 -5.742059 31.657767 -29.173593 -29.845342
Spine -0.340690 25.446980 0.308945
Head -9.798506 0.817385 13.264764
LeftShoulder -14.652258 -1.374318 31.299718
LeftArm -13.653258 -41.039771 -69.929970
LeftForeArm -55.096769 -0.000000 127.575524
LeftHand 10.744387 -0.000000 -43.240857
LeftHandThumb1 -26.253704 0.000000 33.147579
RightShoulder -11.101814 -4.562460 -20.623608
RightArm 25.309009 -36.765277 89.112476
RightForeArm -18.300907 -0.000000 16.621233
RightHand 17.253952 -0.000000 2.713163
RightHandThumb1 -24.326973 -0.000000 -32.862282
LeftUpLeg -9.039941 20.615536 14.100475
LeftLeg -6.554619 -0.000000 0.000000
LeftFoot -15.570969 15.694633 -18.054290
LeftToeBase 21.365004 -0.000000 -0.000000
RightUpLeg 25.264892 -38.672085 -27.817777
RightLeg 1.614433 -0.000000 -0.000000
RightFoot 32.732257 -26.445180 19.660688
RightToeBase 17.020639 -0.000000 -0.000000
